<svg xmlns="http://www.w3.org/2000/svg" viewBox="0 0 24 24" width="24" height="24">
  <g fill="currentColor">
    <circle cx="5" cy="5" r="2.5" />
    <circle cx="19" cy="5" r="2.5" />
    
    <path d="M 12,4 C 7.5,4 4,7.1 4,11 C 4,12.8 4.8,14.5 6.2,15.7 L 5.5,18.5 L 8.5,17.8 C 9.6,18.3 10.8,18.5 12,18.5 C 16.5,18.5 20,15.4 20,11 C 20,7.1 16.5,4 12,4 Z M 8.5,12 C 7.4,12 6.5,11.1 6.5,10 C 6.5,8.9 7.4,8 8.5,8 C 9.6,8 10.5,8.9 10.5,10 C 10.5,11.1 9.6,12 8.5,12 Z M 12,14.5 C 11.2,14.5 10.5,14 10.5,13.5 C 10.5,13 11.2,12.8 12,12.8 C 12.8,12.8 13.5,13 13.5,13.5 C 13.5,14 12.8,14.5 12,14.5 Z M 15.5,12 C 14.4,12 13.5,11.1 13.5,10 C 13.5,8.9 14.4,8 15.5,8 C 16.6,8 17.5,8.9 17.5,10 C 17.5,11.1 16.6,12 15.5,12 Z" />
    
    <path d="M 5.5,10 L 18.5,10" stroke="currentColor" stroke-width="1" />
    
    <rect x="11" y="14" width="12" height="9" rx="1.5" stroke="currentColor" stroke-width="1" fill="none" />
    
    <path d="M 13,21 L 13,16 L 15,18.5 L 17,16 L 17,21" fill="none" stroke="currentColor" stroke-width="1" stroke-linecap="round" stroke-linejoin="round"/>
    <path d="M 20,16 L 20,21 M 18.5,19.5 L 20,21 L 21.5,19.5" fill="none" stroke="currentColor" stroke-width="1" stroke-linecap="round" stroke-linejoin="round"/>
  </g>
</svg>